<svg width="315" height="191" viewBox="0 0 315 191" fill="none" xmlns="http://www.w3.org/2000/svg">
<g clip-path="url(#clip0_1322_759)">
<path d="M155.595 17.1428C160.047 18.3804 162.755 11.1382 162.571 7.05879C162.388 3.5294 160.414 0.229181 155.824 -0.0458374H154.814C151.28 0.183344 148.297 3.39189 148.297 6.78378C148.297 10.8174 149.857 15.4927 155.549 17.097L155.595 17.1428Z" fill="white"/>
<path d="M153.16 48.3573C154.307 49.274 155.868 49.6407 157.52 48.6323C161.376 46.2947 163.303 41.436 164.451 37.9983C165.277 35.6148 165.736 33.1397 165.415 30.0228C164.589 22.4598 159.723 21.0847 154.032 21.7264C148.295 22.3681 142.19 29.2436 145.495 35.844C148.203 41.2527 150.498 46.2947 153.16 48.4032V48.3573Z" fill="white"/>
<path d="M157.751 67.792C172.255 67.5628 186.254 61.7416 186.163 57.3871C186.117 55.2787 182.812 54.8661 177.947 54.4078C172.806 53.9036 165.692 53.9036 157.843 53.9036C142.192 53.9036 127.642 54.1327 129.524 61.4207C130.809 66.5086 142.1 68.0212 157.751 67.7461V67.792Z" fill="white"/>
<path fill-rule="evenodd" clip-rule="evenodd" d="M44.7958 114.958C48.3758 114.958 49.7069 117.02 49.7069 122.108C49.7069 127.196 48.5135 128.892 44.9335 128.892H42.409V114.958H44.7958ZM176.799 79.8927C176.799 79.8927 176.57 79.5719 176.386 79.5719C169.96 80.5803 162.892 81.0845 155.457 81.0845C146.46 81.0845 140.402 80.672 134.297 79.5719C134.114 79.5719 133.884 79.6636 133.884 79.8927C133.884 80.0761 134.022 80.2136 134.206 80.3053C140.402 82.5512 147.929 83.7888 155.457 83.7888C162.984 83.7888 170.924 82.2762 176.478 80.3053C176.662 80.2594 176.799 80.0761 176.799 79.8927ZM197.453 70.0379C197.453 70.0379 197.224 69.7171 196.994 69.7629C183.5 72.0547 169.456 73.2006 155.319 73.2006C141.182 73.2006 127.183 72.0547 113.643 69.7629C113.46 69.7629 113.23 69.8546 113.184 70.0379C113.184 70.0379 113.184 70.0838 113.184 70.1296C113.184 70.1296 113.276 70.4504 113.46 70.4963C126.77 73.7048 140.861 76.1342 155.273 76.1342C169.685 76.1342 183.776 73.7048 197.086 70.4963C197.27 70.4504 197.408 70.2671 197.362 70.0838L197.453 70.0379ZM26.207 126.829H15.4208V130.175H20.4238V136.134C20.1943 137.326 19.1845 140.58 15.0078 140.58C10.4638 140.58 7.52634 137.188 7.52634 127.883C7.52634 118.579 9.63766 114.958 15.7421 114.958C19.414 114.958 24.0497 117.387 24.0497 117.387L24.7841 113.812C24.7841 113.812 19.9648 111.291 14.8242 111.291C5.46092 111.291 -0.046875 117.479 -0.046875 127.883C-0.046875 138.288 4.95604 144.339 13.7685 144.339C17.7158 144.339 20.1025 142.734 21.4335 140.993L23.1777 143.789H26.1611V126.921L26.207 126.829ZM249.823 127.792C249.823 136.867 247.804 140.763 242.709 140.763C237.614 140.763 235.687 136.821 235.687 127.792C235.687 118.762 237.752 114.82 242.709 114.82C247.666 114.82 249.823 118.808 249.823 127.792ZM257.397 127.792C257.397 117.754 252.21 111.245 242.663 111.245C233.116 111.245 228.114 117.754 228.114 127.792C228.114 137.83 233.208 144.293 242.663 144.293C252.118 144.293 257.397 137.83 257.397 127.792ZM274.563 116.608L278.969 131.642H269.697L274.471 116.608H274.563ZM272.359 111.749L261.665 143.743H265.842L268.779 134.805H279.979L282.733 143.743H289.984L279.979 111.749H272.405H272.359ZM314.999 111.749H290.811V115.278H299.485V143.697H306.37V115.278H314.999V111.749ZM45.4842 111.749H35.5702V143.743H42.409V132.146H45.0253L51.0838 143.743H58.9783L51.5428 130.771C54.5721 129.213 57.0965 126.187 57.0965 121.833C57.0965 115.416 52.6903 111.795 45.4842 111.795V111.749ZM76.5574 116.608L80.9636 131.688H71.6922L76.4656 116.608H76.5574ZM74.3084 111.749L63.6141 143.743H67.7908L70.7283 134.805H81.9275L84.6814 143.743H91.9333L81.9275 111.749H74.3543H74.3084ZM123.465 111.749H119.197V131.229L119.564 133.43H119.472L105.932 111.749H98.864V143.743H103.132V122.566L102.719 119.725H102.811L118.141 143.743H123.511V111.749H123.465ZM144.303 115.233C149.995 115.233 152.29 118.579 152.29 127.838C152.29 137.096 149.995 140.259 144.395 140.259H140.172V115.278H144.303V115.233ZM144.303 111.749H133.334V143.743H144.349C154.493 143.743 159.863 138.197 159.863 127.838C159.863 117.479 154.217 111.749 144.303 111.749ZM198.234 127.104H187.126V115.278H199.84V111.749H180.288V143.743H187.126V130.542H198.234V127.104ZM226.094 140.168H213.61V111.749H206.771V143.743H226.094V140.213V140.168Z" fill="white"/>
<path d="M80.414 166.523H80.5517C85.6464 166.523 88.6298 169.549 88.6298 174.866C88.6298 180.183 85.6464 183.208 80.5517 183.208H80.414V190.908H77.9355V183.208H77.7978C72.7031 183.208 69.7656 180.183 69.7656 174.866C69.7656 169.549 72.7031 166.523 77.7978 166.523H77.9355V158.869L80.414 158.731V166.523ZM77.9355 181.833V167.944C74.1719 167.944 72.2441 170.053 72.2441 174.866C72.2441 179.678 74.126 181.787 77.9355 181.787V181.833ZM80.414 167.898V181.787C84.1318 181.787 86.1054 179.724 86.1054 174.866C86.1054 170.007 84.1318 167.944 80.414 167.898Z" fill="white"/>
<path d="M103.589 182.887H101.11V168.357H96.3369C96.1992 177.799 94.3174 183.208 90.5996 183.208C90.416 183.208 90.2783 183.208 90.1406 183.208L90.2324 181.649H90.416C93.1699 181.649 94.6387 176.699 94.6387 166.936H103.635V182.979L103.589 182.887Z" fill="white"/>
<path d="M114.65 183.208C109.877 183.208 107.398 180.091 107.398 174.866C107.398 169.64 109.877 166.523 114.65 166.523C119.424 166.523 121.902 169.64 121.902 174.866C121.902 180.091 119.286 183.208 114.65 183.208ZM110.015 174.866C110.015 179.449 111.392 181.787 114.65 181.787C117.909 181.787 119.286 179.495 119.286 174.866C119.286 170.236 117.863 167.944 114.65 167.944C111.437 167.944 110.015 170.282 110.015 174.866Z" fill="white"/>
<path d="M125.902 167.99C125.902 167.99 128.197 166.523 130.676 166.523C134.394 166.523 136.321 167.761 136.321 171.749V179.633C136.321 181.558 136.78 181.833 137.193 181.833C137.698 181.833 138.524 181.558 138.524 181.558L138.616 182.658C138.616 182.658 136.964 183.254 135.954 183.254C134.853 183.254 134.164 182.749 134.026 180.87C134.026 180.87 132.787 183.254 129.207 183.254C126.27 183.254 124.25 181.833 124.25 179.312C124.25 174.957 130.309 173.995 133.843 173.628V171.932C133.843 168.861 132.879 167.99 130.309 167.99C128.335 167.99 126.178 169.365 126.178 169.365L125.902 168.036V167.99ZM133.843 174.774C130.492 175.141 126.774 176.012 126.774 178.991C126.774 180.87 128.06 181.833 129.941 181.833C132.741 181.833 133.843 179.495 133.843 179.495V174.82V174.774Z" fill="white"/>
<path d="M146.87 168.357V182.887H144.437V168.357H139.297V166.844H152.057V168.357H146.916H146.87Z" fill="white"/>
<path d="M161.515 174.728H153.758V173.215H161.515V174.728Z" fill="white"/>
<path d="M167.667 181.374H175.011V166.844H177.443V181.374H179.601L179.371 187.7H177.811L177.581 182.887H165.234V166.844H167.667V181.374Z" fill="white"/>
<path d="M194.561 180.503C194.561 180.503 193.047 183.254 188.916 183.254C184.556 183.254 181.664 180.733 181.664 175.232C181.664 169.732 184.326 166.569 188.641 166.569C192.496 166.569 194.699 169.182 194.699 173.903C194.699 174.911 194.516 175.37 194.516 175.37H184.234C184.234 179.816 185.978 181.833 189.191 181.833C192.221 181.833 193.598 179.724 193.598 179.724L194.561 180.503ZM184.28 173.995H192.404C192.404 173.995 192.404 173.674 192.404 173.399C192.404 169.778 191.165 167.944 188.595 167.944C185.933 167.944 184.464 169.915 184.234 173.995H184.28Z" fill="white"/>
<path d="M198.328 166.844H200.761V173.903H208.334V166.844H210.812V182.887H208.334V175.324H200.761V182.887H198.328V166.844Z" fill="white"/>
<path d="M221.55 168.357V182.887H219.117V168.357H213.977V166.844H226.736V168.357H221.596H221.55Z" fill="white"/>
<path d="M229.812 166.844H231.832L232.153 168.769C232.383 168.403 233.806 166.523 236.973 166.523C240.92 166.523 243.536 169.365 243.536 174.407C243.536 179.449 241.103 183.208 236.651 183.208C233.53 183.208 232.291 181.649 232.291 181.649V190.908H229.858V166.844H229.812ZM232.291 170.282V180.274C232.291 180.274 233.576 181.695 235.871 181.695C239.451 181.695 240.966 179.266 240.966 174.499C240.966 169.732 239.176 168.128 236.192 168.128C233.393 168.128 232.291 170.328 232.291 170.328V170.282Z" fill="white"/>
</g>
<defs>
<clipPath id="clip0_1322_759">
<rect width="315" height="191" fill="white"/>
</clipPath>
</defs>
</svg>
