<svg width="298" height="65" viewBox="0 0 298 65" fill="none" xmlns="http://www.w3.org/2000/svg">
<path fill-rule="evenodd" clip-rule="evenodd" d="M108.86 9.83009C111.351 9.83009 112.271 11.3154 112.271 14.9308C112.271 18.5463 111.447 19.797 108.956 19.797H107.192V9.83009H108.86ZM95.8835 18.3508H88.3508V20.7546H91.8392V25.015C91.6667 25.8553 90.9767 28.181 88.0825 28.181C84.9007 28.181 82.869 25.7576 82.869 19.0935C82.869 12.4293 84.364 9.83009 88.6 9.83009C91.1492 9.83009 94.4076 11.5499 94.4076 11.5499L94.9252 8.9702C94.9252 8.9702 91.5709 7.17224 87.9866 7.17224C81.4506 7.17224 77.6172 11.6085 77.6172 19.0348C77.6172 26.4612 81.1056 30.7997 87.2583 30.7997C90.0184 30.7997 91.6859 29.6467 92.6059 28.3959L93.8135 30.4089H95.8835V18.3313V18.3508ZM251.809 19.0153C251.809 25.5036 250.39 28.3178 246.825 28.3178C243.26 28.3178 241.918 25.5036 241.918 19.0153C241.918 12.527 243.375 9.71283 246.825 9.71283C250.275 9.71283 251.809 12.5661 251.809 19.0153ZM257.099 19.0153C257.099 11.8235 253.476 7.17224 246.844 7.17224C240.212 7.17224 236.686 11.8235 236.686 19.0153C236.686 26.2071 240.251 30.8193 246.844 30.8193C253.438 30.8193 257.099 26.2071 257.099 19.0153ZM269.078 11.0222L272.145 21.8099H265.686L269.002 11.0222H269.078ZM267.506 7.54356L260.05 30.4479H262.945L264.976 24.0378H272.777L274.713 30.4479H279.754L272.777 7.54356H267.487H267.506ZM297.254 7.54356H280.387V10.0841H286.425V30.4479H291.235V10.0646H297.254V7.52401V7.54356ZM109.339 7.54356H102.42V30.4479H107.192V22.1422H109.032L113.249 30.4479H118.75L113.575 21.1455C115.683 20.012 117.447 17.8623 117.447 14.7354C117.447 10.1623 114.38 7.54356 109.358 7.54356H109.339ZM130.979 11.0222L134.045 21.8099H127.586L130.902 11.0222H130.979ZM129.426 7.54356L121.97 30.4479H124.864L126.896 24.0378H134.697L136.633 30.4479H141.674L134.697 7.54356H129.407H129.426ZM163.716 7.54356H160.745V21.4973L160.994 23.0802H160.918L151.488 7.54356H146.542V30.4479H149.513V15.3021L149.245 13.2501H149.322L159.998 30.4479H163.735V7.54356H163.716ZM178.245 10.0451C182.213 10.0451 183.803 12.4488 183.803 19.0544C183.803 25.6599 182.213 27.9269 178.302 27.9269H175.37V10.0451H178.245ZM178.245 7.54356H170.616V30.4479H178.283C185.375 30.4479 189.094 26.4612 189.094 19.0739C189.094 11.6867 185.164 7.5631 178.245 7.5631V7.54356ZM215.851 18.5267H208.107V10.0646H216.982V7.52401H203.335V30.4284H208.107V20.9891H215.851V18.5267ZM235.248 27.8878H226.546V7.54356H221.774V30.4479H235.248V27.9074V27.8878Z" fill="white"/>
<path fill-rule="evenodd" clip-rule="evenodd" d="M44.3657 57.2023C44.3465 57.0655 44.2123 56.9678 44.0782 56.9874C39.6122 57.7104 34.6671 58.0622 29.4919 58.0622C23.2243 58.0622 19.0075 57.7886 14.7524 56.9874C14.6182 56.9678 14.484 57.0655 14.4649 57.2023C14.4457 57.3391 14.5415 57.4368 14.6757 57.4955C18.9883 59.098 24.2401 59.9774 29.4919 59.9774C34.7438 59.9774 40.2639 58.883 44.174 57.4955C44.3082 57.4564 44.404 57.3391 44.3848 57.2023H44.3657ZM58.7602 50.1668C58.7219 50.03 58.5877 49.9519 58.4536 49.9714C49.0425 51.613 39.2672 52.4534 29.4153 52.4534C19.5633 52.4534 9.78808 51.613 0.376987 49.9714C0.242817 49.9519 0.108647 50.03 0.0703125 50.1668C0.0703125 50.1668 0.0703125 50.2059 0.0703125 50.2255C0.0703125 50.3427 0.146981 50.46 0.261984 50.4795C9.55807 52.7661 19.3525 54.5054 29.4153 54.5054C39.4781 54.5054 49.2916 52.7661 58.5686 50.4795C58.7027 50.4404 58.7986 50.3036 58.7602 50.1668Z" fill="white"/>
<path fill-rule="evenodd" clip-rule="evenodd" d="M11.3781 43.9913C12.2981 47.6263 20.1567 48.7207 31.0628 48.5253C41.1831 48.3494 50.9392 44.2063 50.8625 41.0989C50.8242 39.5746 48.5241 39.301 45.1315 38.9492C41.5473 38.5779 36.6021 38.5974 31.1203 38.5974C20.2142 38.5974 10.0556 38.7733 11.3781 43.9913ZM36.4296 21.4778C36.6788 23.7057 36.3338 25.4841 35.7588 27.2038C34.9346 29.6663 33.5929 33.1449 30.9095 34.8061C29.7594 35.5292 28.6669 35.236 27.8811 34.5911C26.041 33.1058 24.431 29.4904 22.5334 25.6013C20.2334 20.8719 24.4885 15.9471 28.4752 15.4976C32.462 15.0481 35.8354 16.0253 36.4105 21.4582L36.4296 21.4778ZM34.4171 5.08118C34.3021 2.54059 32.9029 0.175887 29.7019 0H29.0119C26.5394 0.175887 24.4885 2.46242 24.4885 4.90529C24.4885 7.79766 25.5618 11.1395 29.5678 12.2925C32.6729 13.172 34.5512 7.99308 34.4362 5.08118H34.4171Z" fill="white"/>
<path d="M84.6573 59.5866H84.5615C82.9131 59.5866 81.6289 59.0785 80.7281 58.0623C79.8272 57.046 79.3672 55.6194 79.3672 53.7628C79.3672 51.9062 79.8272 50.4796 80.7281 49.4633C81.6289 48.4471 82.9131 47.939 84.5615 47.939H84.6573V42.6233L86.2482 42.5256V47.939H86.344C87.9924 47.939 89.2766 48.4471 90.1966 49.4633C91.1167 50.4796 91.5575 51.9062 91.5575 53.7628C91.5575 55.6194 91.0975 57.046 90.1966 58.0623C89.2766 59.0785 87.9924 59.5866 86.344 59.5866H86.2482V64.9414L84.6573 64.9805V59.5671V59.5866ZM84.6573 48.9552C83.4115 48.9552 82.4914 49.3656 81.8973 50.1278C81.3031 50.89 80.9964 52.1212 80.9964 53.7823C80.9964 55.4435 81.3031 56.6747 81.8973 57.4564C82.4914 58.2381 83.4115 58.6095 84.6573 58.6095V48.9552ZM89.0274 57.4369C89.6408 56.6552 89.9475 55.4435 89.9475 53.7628C89.9475 52.0821 89.6408 50.89 89.0274 50.1083C88.4141 49.3265 87.4941 48.9357 86.2674 48.9161V58.5899C87.4941 58.5899 88.4141 58.1991 89.0274 57.4369Z" fill="white"/>
<path d="M92.5391 59.5476L92.5966 58.4532H92.7116C93.5933 58.4532 94.2833 57.5933 94.7433 55.8735C95.2033 54.1537 95.4333 51.5936 95.4333 48.1931H101.241V59.3717H99.6501V49.2484H96.5642C96.5258 52.5707 96.1808 55.1309 95.5675 56.9093C94.9541 58.6877 94.0533 59.5867 92.8649 59.5867C92.7307 59.5867 92.6349 59.5867 92.5582 59.5671L92.5391 59.5476Z" fill="white"/>
<path d="M104.88 58.0623C104.075 57.0461 103.691 55.6194 103.691 53.7628C103.691 51.9063 104.094 50.4796 104.88 49.4634C105.666 48.4471 106.835 47.939 108.349 47.939C109.863 47.939 111.032 48.4471 111.818 49.4634C112.623 50.4796 113.007 51.9063 113.007 53.7628C113.007 55.6194 112.604 57.0265 111.799 58.0428C110.994 59.059 109.844 59.5671 108.349 59.5671C106.854 59.5671 105.666 59.059 104.88 58.0428V58.0623ZM110.611 57.3978C111.09 56.5966 111.339 55.3849 111.339 53.7628C111.339 52.1408 111.09 50.9486 110.611 50.1474C110.132 49.3461 109.384 48.9357 108.349 48.9357C107.314 48.9357 106.566 49.3266 106.087 50.1278C105.608 50.9291 105.359 52.1408 105.359 53.7628C105.359 55.3849 105.608 56.5966 106.087 57.3978C106.566 58.1991 107.314 58.59 108.349 58.59C109.384 58.59 110.132 58.1991 110.611 57.3978Z" fill="white"/>
<path d="M115.436 58.8635C114.861 58.3749 114.555 57.7104 114.555 56.8505C114.555 54.6617 116.625 53.3328 120.765 52.9029V51.7107C120.765 50.6554 120.592 49.9323 120.267 49.5415C119.941 49.1506 119.346 48.9552 118.484 48.9552C118.101 48.9552 117.717 49.0334 117.315 49.1702C116.912 49.307 116.586 49.4633 116.318 49.6196C116.05 49.776 115.877 49.8737 115.801 49.9128L115.628 48.9943C115.628 48.9943 115.896 48.8184 116.184 48.662C116.491 48.5057 116.855 48.3493 117.315 48.193C117.775 48.0367 118.235 47.978 118.714 47.978C119.979 47.978 120.899 48.2516 121.474 48.7793C122.049 49.307 122.356 50.2646 122.356 51.613V57.0851C122.356 57.6909 122.413 58.0818 122.528 58.2967C122.643 58.5117 122.777 58.6094 122.931 58.6094C123.065 58.6094 123.218 58.5899 123.41 58.5312C123.602 58.4726 123.717 58.4335 123.774 58.414L123.832 59.1762C123.717 59.2153 123.467 59.2934 123.084 59.4302C122.701 59.567 122.375 59.6061 122.126 59.6061C121.742 59.6061 121.455 59.4889 121.244 59.2348C121.033 58.9807 120.918 58.5508 120.88 57.9254H120.861C120.861 57.9254 120.746 58.1599 120.516 58.4335C120.286 58.7267 119.941 58.9807 119.481 59.2348C119.021 59.4889 118.446 59.6061 117.756 59.6061C116.797 59.6061 116.011 59.3716 115.436 58.883V58.8635ZM119.596 58.2381C119.979 58.0036 120.267 57.73 120.458 57.4564C120.65 57.1828 120.746 57.0069 120.746 56.9678V53.7041C119.423 53.8605 118.331 54.1536 117.468 54.5836C116.606 55.0135 116.184 55.6975 116.184 56.6356C116.184 57.2805 116.376 57.7691 116.74 58.1013C117.104 58.4335 117.602 58.6094 118.235 58.6094C118.752 58.6094 119.212 58.4922 119.596 58.2576V58.2381Z" fill="white"/>
<path d="M128.015 59.3521V49.2288H124.68V48.1735H132.922V49.2288H129.586V59.3521H128.015Z" fill="white"/>
<path d="M134.031 53.6846V52.6293H139.053V53.6846H134.031Z" fill="white"/>
<path d="M149.553 62.7135L149.4 59.3521H141.445V48.1735H143.017V58.2968H147.751V48.1735H149.323V58.2968H150.703L150.55 62.694H149.534L149.553 62.7135Z" fill="white"/>
<path d="M153.312 58.1795C152.488 57.2414 152.066 55.8539 152.066 53.9973C152.066 52.1407 152.469 50.6554 153.274 49.5806C154.079 48.5057 155.172 47.978 156.571 47.978C157.836 47.978 158.794 48.4275 159.465 49.307C160.136 50.1864 160.481 51.4567 160.481 53.0788C160.481 53.3719 160.481 53.5869 160.442 53.7628C160.423 53.9386 160.385 54.0559 160.385 54.095H153.753C153.753 57.1046 154.826 58.6094 156.954 58.6094C157.529 58.6094 158.047 58.4922 158.449 58.2772C158.871 58.0622 159.197 57.8277 159.427 57.5932C159.657 57.3391 159.772 57.2023 159.772 57.1632L160.404 57.6909C160.404 57.6909 160.27 57.945 159.982 58.2576C159.714 58.5703 159.292 58.883 158.756 59.1566C158.219 59.4498 157.548 59.5866 156.762 59.5866C155.306 59.5866 154.156 59.1175 153.331 58.199L153.312 58.1795ZM158.986 53.1569V52.727C159.005 50.1864 158.181 48.9356 156.552 48.9356C155.689 48.9356 155.018 49.2874 154.558 49.9714C154.098 50.6554 153.83 51.7303 153.753 53.1569H158.986Z" fill="white"/>
<path d="M162.824 59.3521V48.1735H164.396V53.0984H169.284V48.1735H170.874V59.3521H169.284V54.0951H164.396V59.3521H162.824Z" fill="white"/>
<path d="M176.198 59.3521V49.2288H172.863V48.1735H181.105V49.2288H177.77V59.3521H176.198Z" fill="white"/>
<path d="M183.141 48.193H184.463L184.655 49.5415C184.866 49.2092 185.211 48.877 185.709 48.5057C186.207 48.1539 186.897 47.978 187.779 47.978C189.063 47.978 190.098 48.4666 190.865 49.4242C191.632 50.3818 192.015 51.7498 192.015 53.4696C192.015 55.3457 191.632 56.831 190.846 57.945C190.079 59.0394 188.967 59.6061 187.568 59.6061C186.974 59.6061 186.457 59.5279 186.054 59.3716C185.652 59.2153 185.326 59.0394 185.096 58.8635C184.866 58.6876 184.77 58.5703 184.77 58.5312H184.751V64.9609L183.179 65V48.193H183.141ZM189.523 57.261C190.041 56.4401 190.309 55.1894 190.309 53.4892C190.309 51.9257 190.041 50.7922 189.523 50.0887C189.006 49.3851 188.239 49.0334 187.242 49.0334C186.725 49.0334 186.265 49.1506 185.882 49.3656C185.498 49.5806 185.211 49.8346 185.019 50.0887C184.827 50.3427 184.732 50.4991 184.732 50.5382V57.4955C184.885 57.7104 185.153 57.9254 185.537 58.1404C185.92 58.3554 186.418 58.4726 187.032 58.4726C188.162 58.4726 189.006 58.0622 189.523 57.2414V57.261Z" fill="white"/>
</svg>
