<svg width="47" height="47" viewBox="0 0 47 47" fill="none" xmlns="http://www.w3.org/2000/svg">
<path d="M4.91959 23.5101C4.91959 22.4861 5.62794 21.7392 6.65103 21.7392L32.5573 21.7392L36.747 21.8969L30.2954 16.0152L25.8891 11.5301C25.5744 11.2154 25.4166 10.7437 25.4166 10.2913C25.4166 9.30766 26.1636 8.57916 27.1288 8.57916C27.6004 8.57916 28.0134 8.75709 28.407 9.13058L41.4881 22.1907C41.8809 22.565 42.0781 23.0174 42.0781 23.5084C42.0781 23.9809 41.8809 24.4333 41.4881 24.8076L28.407 37.8686C28.0125 38.242 27.6004 38.4191 27.1279 38.4191C26.1644 38.4191 25.4166 37.6915 25.4166 36.728C25.4166 36.2554 25.5744 35.7838 25.8891 35.469L30.2954 31.004L36.7663 25.1022L32.5573 25.26L6.65103 25.26C5.62794 25.26 4.91959 24.5331 4.91959 23.5101Z" fill="#05517D"/>
</svg>
