<svg width="26" height="26" viewBox="0 0 26 26" fill="none" xmlns="http://www.w3.org/2000/svg">
<path d="M17.0392 4.20743C18.5927 2.64743 20.8655 2.61493 22.1232 3.8781C23.3842 5.14343 23.3507 7.43143 21.795 8.99143L19.1701 11.6272C19.0223 11.7806 18.9407 11.986 18.9428 12.199C18.945 12.4121 19.0307 12.6157 19.1816 12.7662C19.3324 12.9166 19.5363 13.0018 19.7494 13.0033C19.9624 13.0049 20.1676 12.9227 20.3206 12.7744L22.9466 10.1387C25.0168 8.05976 25.2768 4.74151 23.2748 2.73085C21.2707 0.719096 17.9589 0.981263 15.8865 3.06018L10.6367 8.33276C8.56641 10.4117 8.30641 13.7299 10.3084 15.7395C10.3832 15.8173 10.4727 15.8794 10.5717 15.9222C10.6707 15.965 10.7773 15.9876 10.8852 15.9888C10.993 15.99 11.1001 15.9697 11.2 15.9291C11.2999 15.8884 11.3908 15.8283 11.4672 15.7522C11.5437 15.6761 11.6042 15.5856 11.6453 15.4858C11.6864 15.3861 11.7072 15.2791 11.7066 15.1713C11.7059 15.0634 11.6837 14.9567 11.6414 14.8575C11.5991 14.7583 11.5374 14.6685 11.46 14.5933C10.199 13.328 10.2337 11.04 11.7882 9.48001L17.0392 4.20743Z" fill="#243869"/>
<path d="M15.6978 10.259C15.5455 10.1063 15.3388 10.0203 15.1231 10.02C14.9075 10.0197 14.7005 10.1051 14.5478 10.2574C14.3951 10.4097 14.3092 10.6164 14.3089 10.832C14.3085 11.0477 14.3939 11.2546 14.5462 11.4073C15.8072 12.6727 15.7736 14.9596 14.218 16.5207L8.96704 21.7922C7.41246 23.3522 5.13962 23.3847 3.88187 22.1215C2.62087 20.8562 2.65554 18.5682 4.21012 17.0082L6.83612 14.3724C6.91145 14.2968 6.97115 14.2071 7.01181 14.1084C7.05247 14.0097 7.07329 13.904 7.07309 13.7973C7.07289 13.6905 7.05167 13.5849 7.01064 13.4863C6.96961 13.3878 6.90957 13.2983 6.83396 13.223C6.75834 13.1477 6.66863 13.088 6.56995 13.0473C6.47126 13.0067 6.36553 12.9858 6.2588 12.986C6.15207 12.9862 6.04642 13.0075 5.94789 13.0485C5.84935 13.0895 5.75987 13.1496 5.68454 13.2252L3.05854 15.8609C0.988289 17.9409 0.728289 21.2581 2.73029 23.2687C4.73446 25.2816 8.04621 25.0183 10.1186 22.9394L15.3695 17.6668C17.4398 15.589 17.6998 12.2686 15.6978 10.259Z" fill="#243869"/>
</svg>
