<svg width="19" height="19" viewBox="0 0 19 19" fill="none" xmlns="http://www.w3.org/2000/svg">
<path d="M15.0365 7.12467C15.0365 6.39693 14.8931 5.67632 14.6146 5.00397C14.3361 4.33162 13.9279 3.72072 13.4133 3.20612C12.8988 2.69153 12.2878 2.28334 11.6155 2.00484C10.9432 1.72635 10.2225 1.58301 9.49479 1.58301C8.76705 1.58301 8.04643 1.72635 7.37409 2.00484C6.70174 2.28334 6.09083 2.69153 5.57624 3.20612C5.06165 3.72072 4.65345 4.33162 4.37496 5.00397C4.09646 5.67632 3.95312 6.39693 3.95313 7.12467C3.95313 8.22272 4.27692 9.24397 4.82792 10.1053H4.82158L9.49479 17.4163L14.168 10.1053H14.1625C14.7332 9.21595 15.0365 8.18141 15.0365 7.12467ZM9.49479 9.49967C8.8649 9.49967 8.26081 9.24945 7.81541 8.80405C7.37001 8.35865 7.11979 7.75456 7.11979 7.12467C7.11979 6.49479 7.37001 5.8907 7.81541 5.4453C8.26081 4.9999 8.8649 4.74967 9.49479 4.74967C10.1247 4.74967 10.7288 4.9999 11.1742 5.4453C11.6196 5.8907 11.8698 6.49479 11.8698 7.12467C11.8698 7.75456 11.6196 8.35865 11.1742 8.80405C10.7288 9.24945 10.1247 9.49967 9.49479 9.49967Z" fill="#243869"/>
</svg>
